<svg width="48" height="48" viewBox="0 0 48 48" fill="none" xmlns="http://www.w3.org/2000/svg">
<path d="M43.3323 35C42.5144 35 41.8127 34.7144 41.2275 34.1433C40.6493 33.565 40.3637 32.8634 40.3707 32.0384C40.3637 31.2346 40.6493 30.547 41.2275 29.9759C41.8127 29.4047 42.5144 29.1191 43.3323 29.1191C44.108 29.1191 44.7919 29.4047 45.3843 29.9759C45.9836 30.547 46.2868 31.2346 46.2939 32.0384C46.2868 32.5884 46.1423 33.0891 45.8602 33.5404C45.5852 33.9846 45.2256 34.3407 44.7814 34.6086C44.3371 34.8695 43.8541 35 43.3323 35Z" fill="#4F46E5"/>
<path d="M37.4991 23.7032H32.126C32.0978 23.3718 31.9814 23.0862 31.7769 22.8465C31.5725 22.6067 31.308 22.4234 30.9837 22.2965C30.6664 22.1625 30.3138 22.0955 29.926 22.0955C29.4253 22.0955 28.9952 22.1872 28.6356 22.3705C28.2759 22.5538 28.0996 22.8147 28.1067 23.1532C28.0996 23.3929 28.2019 23.6151 28.4134 23.8196C28.632 24.024 29.0516 24.1827 29.6721 24.2955L32.9722 24.8878C34.6363 25.191 35.8738 25.7023 36.6847 26.4215C37.5027 27.1337 37.9152 28.0892 37.9222 29.2879C37.9152 30.4443 37.5697 31.4491 36.8857 32.3024C36.2087 33.1485 35.2815 33.8043 34.1039 34.2697C32.9334 34.728 31.5971 34.9572 30.0952 34.9572C27.6131 34.9572 25.6704 34.4495 24.2672 33.4341C22.871 32.4187 22.0919 31.0789 21.9297 29.4148H27.7259C27.8035 29.9296 28.0573 30.328 28.4875 30.61C28.9247 30.885 29.4747 31.0225 30.1375 31.0225C30.6734 31.0225 31.1141 30.9309 31.4596 30.7475C31.8122 30.5642 31.992 30.3033 31.9991 29.9648C31.992 29.6546 31.8369 29.4078 31.5337 29.2244C31.2375 29.0411 30.7721 28.893 30.1375 28.7802L27.2605 28.2725C25.6035 27.9834 24.3624 27.4334 23.5374 26.6225C22.7124 25.8116 22.3034 24.768 22.3105 23.4917C22.3034 22.3634 22.5996 21.408 23.1989 20.6253C23.8054 19.8355 24.6691 19.2362 25.7903 18.8272C26.9185 18.4111 28.2548 18.2031 29.799 18.2031C32.1471 18.2031 33.9981 18.6897 35.352 19.6628C36.7129 20.6359 37.4286 21.9827 37.4991 23.7032Z" fill="#E5E4E6"/>
<path d="M20.4413 18.4143V22.6452H9.7373V18.4143H20.4413ZM11.8104 14.522H17.649V29.4356C17.649 29.6613 17.6877 29.8517 17.7653 30.0068C17.8429 30.1549 17.9627 30.2677 18.1249 30.3453C18.2871 30.4158 18.4951 30.451 18.749 30.451C18.9253 30.451 19.1297 30.4299 19.3624 30.3876C19.6022 30.3453 19.7785 30.31 19.8913 30.2818L20.7375 34.3857C20.4766 34.4633 20.1028 34.5585 19.6163 34.6713C19.1368 34.7841 18.5656 34.8582 17.9028 34.8934C16.563 34.9639 15.4383 34.8264 14.5287 34.4809C13.6191 34.1283 12.9351 33.5748 12.4768 32.8203C12.0184 32.0658 11.7963 31.1209 11.8104 29.9857V14.522Z" fill="#E5E4E6"/>
<path d="M7.88085 13V34.6618H2V13H7.88085Z" fill="#E5E4E6"/>
</svg>
